<?xml version="1.0" encoding="UTF-8" standalone="no"?>
<svg
   xmlns:dc="http://purl.org/dc/elements/1.1/"
   xmlns:cc="http://creativecommons.org/ns#"
   xmlns:rdf="http://www.w3.org/1999/02/22-rdf-syntax-ns#"
   xmlns:svg="http://www.w3.org/2000/svg"
   xmlns="http://www.w3.org/2000/svg"
   xmlns:sodipodi="http://sodipodi.sourceforge.net/DTD/sodipodi-0.dtd"
   xmlns:inkscape="http://www.inkscape.org/namespaces/inkscape"
   width="64.917107mm"
   height="52.894444mm"
   viewBox="0 0 64.917107 52.894444"
   version="1.1"
   id="svg1883"
   inkscape:version="1.0.1 (3bc2e813f5, 2020-09-07)"
   sodipodi:docname="LogoUNA.svg">
  <defs
     id="defs1877" />
  <sodipodi:namedview
     id="base"
     pagecolor="#ffffff"
     bordercolor="#666666"
     borderopacity="1.0"
     inkscape:pageopacity="0.0"
     inkscape:pageshadow="2"
     inkscape:zoom="1.4"
     inkscape:cx="196.10187"
     inkscape:cy="205.67429"
     inkscape:document-units="mm"
     inkscape:current-layer="layer1"
     inkscape:document-rotation="0"
     showgrid="false"
     fit-margin-top="0"
     fit-margin-left="0"
     fit-margin-right="0"
     fit-margin-bottom="0"
     inkscape:window-width="2560"
     inkscape:window-height="1385"
     inkscape:window-x="0"
     inkscape:window-y="0"
     inkscape:window-maximized="1" />
  <metadata
     id="metadata1880">
    <rdf:RDF>
      <cc:Work
         rdf:about="">
        <dc:format>image/svg+xml</dc:format>
        <dc:type
           rdf:resource="http://purl.org/dc/dcmitype/StillImage" />
        <dc:title></dc:title>
      </cc:Work>
    </rdf:RDF>
  </metadata>
  <g
     inkscape:label="Layer 1"
     inkscape:groupmode="layer"
     id="layer1"
     transform="translate(-34.065257,-31.00516)">
    <path
       d="m 38.120437,62.902268 c 0,1.621719 1.0541,2.361494 2.422173,2.361494 1.905705,0 2.341738,-1.256594 2.341738,-2.452865 v -3.283654 c 0,-1.033991 -0.942975,-0.608541 -0.942975,-0.993775 0,-0.0508 0.07091,-0.101248 0.1016,-0.101248 0.395112,0 0.790575,0.04057 1.185686,0.04057 0.192617,0 0.375003,-0.04057 0.557742,-0.04057 0.05045,0 0.131586,0.05045 0.131586,0.111832 0,0.283633 -0.597958,0.06068 -0.597958,0.993068 v 3.14184 c 0,0.49671 0.121708,3.000375 -2.827867,3.000375 -2.665588,0 -3.17253,-1.490133 -3.17253,-3.050823 v -3.415948 c 0,-0.597604 -0.820914,-0.354542 -0.820914,-0.679096 0,-0.07091 0.172156,-0.101248 0.222956,-0.101248 0.263525,0 0.516819,0.04057 0.790575,0.04057 0.324555,0 0.648405,-0.04057 0.963083,-0.04057 0.05045,0 0.324203,-0.02045 0.324203,0.101248 0,0.284337 -0.679098,0 -0.679098,0.729896 v 3.638904"
       style="fill:#d22027;fill-opacity:1;fill-rule:nonzero;stroke:none;stroke-width:0.0352777"
       id="path929" />
    <path
       d="m 44.646473,60.429295 c 0,-2.1082 -1.226255,-1.520473 -1.226255,-1.895827 0,-0.06068 0.101247,-0.101248 0.152047,-0.101248 0.161925,0 0.313972,0.04057 0.47625,0.04057 0.152047,0 0.314325,-0.04057 0.466372,-0.04057 0.111478,0 0.202495,0.162277 0.263525,0.233185 l 4.834467,5.38198 c 0.06103,0.07091 0.1016,0.111477 0.122061,0.111477 0.02011,0 0.03034,-0.03034 0.03034,-0.111477 v -4.236508 c 0,-1.328209 -1.125009,-0.942975 -1.125009,-1.277409 0,-0.07091 0.05045,-0.101248 0.111125,-0.101248 0.304095,0 0.597959,0.04057 0.922514,0.04057 0.344664,0 0.780345,-0.04057 1.023761,-0.04057 0.06068,0 0.101248,0.03034 0.101248,0.09137 0,0.263525 -0.597959,0.08114 -0.597959,0.820915 v 5.86881 c 0,0.293865 -0.01023,0.435681 -0.09102,0.435681 -0.07126,0 -0.172509,-0.0508 -0.385586,-0.283985 l -4.358217,-4.905375 c -0.02011,-0.02011 -0.141817,-0.192617 -0.212725,-0.192617 -0.04057,0 -0.07091,0.03034 -0.07091,0.232834 v 4.145843 c 0,0.911932 0.891822,0.557035 0.891822,0.831144 0,0.05045 -0.0099,0.131588 -0.111478,0.131588 -0.243064,0 -0.52705,-0.04057 -1.023761,-0.04057 -0.354894,0 -0.881592,0.04057 -0.952853,0.04057 -0.121708,0 -0.131586,-0.06103 -0.131586,-0.11148 0,-0.354893 0.891822,0.09102 0.891822,-1.327502 v -3.74015"
       style="fill:#d22027;fill-opacity:1;fill-rule:nonzero;stroke:none;stroke-width:0.0352777"
       id="path931" />
    <path
       d="m 51.801159,59.304287 c -0.01023,-0.740127 -0.821266,-0.537633 -0.821266,-0.760235 0,-0.09137 0.02046,-0.111832 0.1016,-0.111832 0.375002,0 0.739775,0.04057 1.114777,0.04057 0.314325,0 0.62865,-0.04057 0.942623,-0.04057 0.162277,0 0.192616,0.02045 0.192616,0.101248 0,0.243417 -0.729544,0.01058 -0.729544,0.770819 v 5.442302 c 0,0.689681 0.902052,0.456141 0.902052,0.76059 0,0.07091 -0.03034,0.101248 -0.202847,0.101248 -0.233186,0 -0.668866,-0.04057 -1.1049,-0.04057 -0.618066,0 -0.830791,0.04057 -0.972961,0.04057 -0.182386,0 -0.212725,-0.0508 -0.212725,-0.152048 0,-0.293865 0.790575,0.04057 0.790575,-0.962732 v -5.18936"
       style="fill:#d22027;fill-opacity:1;fill-rule:nonzero;stroke:none;stroke-width:0.0352777"
       id="path933" />
    <path
       d="m 53.978151,59.212564 c -0.253295,-0.607835 -0.780697,-0.415571 -0.780697,-0.638527 0,-0.09137 0.0508,-0.141817 0.141816,-0.141817 0.314325,0 0.62865,0.04057 0.932745,0.04057 0.273755,0 0.658636,-0.04057 0.800805,-0.04057 0.06068,0 0.141817,0.04057 0.141817,0.101248 0.01023,0.142169 -0.415572,0.1524 -0.415572,0.517171 0,0.141816 0.0508,0.303741 0.09102,0.395113 l 1.773767,4.175828 c 0.223308,0.537282 0.294217,0.770822 0.405694,0.770822 0.101248,0 0.131587,-0.16228 0.182387,-0.28434 l 1.763536,-4.347985 c 0.06068,-0.152048 0.182386,-0.476605 0.142169,-0.68933 0,-0.466018 -0.648758,-0.273754 -0.648758,-0.506587 0,-0.1016 0.05045,-0.13194 0.151694,-0.13194 0.223309,0 0.446264,0.04057 0.66922,0.04057 0.48648,0 0.638527,-0.04057 0.780344,-0.04057 0.111478,0 0.172508,0.04057 0.172508,0.13194 0,0.222954 -0.283986,-0.03069 -0.567619,0.648404 l -2.524125,5.970413 c -0.111478,0.253293 -0.182386,0.587727 -0.334081,0.587727 -0.162277,0 -0.283986,-0.425802 -0.375002,-0.638527 l -2.503664,-5.919613"
       style="fill:#d22027;fill-opacity:1;fill-rule:nonzero;stroke:none;stroke-width:0.0352777"
       id="path935" />
    <path
       d="m 61.478207,61.381795 c 0,0.344665 -0.02045,0.344665 0.384879,0.344665 h 1.095023 c 1.0541,0 0.779992,-0.810683 1.023408,-0.810683 0.08114,0 0.111477,0.111477 0.111477,0.192262 0,0.354896 -0.02011,0.699206 -0.02011,1.023763 0,0.263877 0.02011,0.52705 0.02011,0.800803 0,0.09137 -0.04057,0.13194 -0.111477,0.13194 -0.314325,0 0.03069,-0.892175 -0.820915,-0.892175 h -1.50001 c -0.213077,0 -0.182385,0.172509 -0.182385,0.324557 v 1.864783 c 0,0.597958 -0.08114,0.84102 0.770112,0.84102 2.341388,0 2.68605,-1.043868 2.817638,-1.043868 0.07091,0 0.08149,0.101248 0.08149,0.121708 0,0.365125 -0.26388,0.719667 -0.506942,0.983192 -0.324205,0.364773 -0.547513,0.344665 -0.993071,0.344665 -0.770467,0 -1.540934,-0.06103 -2.3114,-0.04057 -0.405342,0.01024 -0.831144,0.04057 -1.236485,0.04057 -0.09102,0 -0.152047,-0.02045 -0.152047,-0.101248 0.02046,-0.121709 0.121708,-0.1016 0.445911,-0.263525 0.263877,-0.121709 0.283986,-0.405694 0.283986,-0.881944 v -4.621742 c 0,-0.456496 0,-0.942975 -0.547511,-1.023763 -0.08114,-0.02045 -0.303742,-0.04057 -0.303742,-0.162276 0,-0.08114 0.06068,-0.121709 0.354542,-0.121709 1.915584,0 2.442634,0.04057 2.868436,0.04057 0.202848,0 1.135239,-0.04057 1.449564,-0.04057 0.08079,0 0.101246,0.101248 0.101246,0.223309 0,1.125008 -0.141817,1.205793 -0.202846,1.205793 -0.243416,0 -0.08079,-0.486479 -0.243416,-0.719312 -0.263173,-0.345017 -1.317273,-0.283988 -1.722967,-0.283988 -0.972963,0 -0.9525,-0.04022 -0.9525,0.638882 v 1.884891"
       style="fill:#d22027;fill-opacity:1;fill-rule:nonzero;stroke:none;stroke-width:0.0352777"
       id="path937" />
    <path
       d="m 66.45449,61.716229 c 0,0.192968 0.628296,0.142168 1.104546,0.142168 0.435681,0 1.408996,-0.183092 1.408996,-1.439333 0,-1.236837 -0.942623,-1.65241 -1.936046,-1.65241 -0.364419,0 -0.577496,-0.02011 -0.577496,0.375356 z m 3.689702,2.78765 c 0.729192,1.114776 1.225902,0.739775 1.225902,0.982839 0,0.121709 -0.567267,0.121709 -0.658635,0.121709 -0.740127,0 -1.135592,-0.516822 -1.520473,-1.094672 L 68.065977,62.739989 C 67.700852,62.17237 67.853252,62.20271 66.717661,62.20271 c -0.324202,0 -0.263171,0.182737 -0.263171,0.283633 v 2.138892 c 0,0.871712 1.053746,0.557742 1.053746,0.902052 0,0.101248 -0.09102,0.08114 -0.172154,0.08114 -0.09137,0 -0.324205,-0.04057 -1.16558,-0.04057 -0.385233,0 -0.770466,0.04057 -1.155345,0.04057 -0.06103,0 -0.1016,-0.0508 -0.1016,-0.11148 0,-0.253293 0.739775,-0.111477 0.739775,-0.881943 V 59.45598 c 0,-0.973312 -0.871715,-0.557741 -0.871715,-0.902051 0,-0.06068 0.08114,-0.121709 0.2032,-0.121709 0.182034,0 0.131585,0.04057 0.648407,0.04057 0.587727,0 1.165928,-0.04057 1.692978,-0.04057 0.161925,0 2.401713,-0.202493 2.401713,1.753659 0,0.790575 -0.567266,1.469673 -1.276704,1.753658 l 1.692981,2.564342"
       style="fill:#d22027;fill-opacity:1;fill-rule:nonzero;stroke:none;stroke-width:0.0352777"
       id="path939" />
    <path
       d="m 70.752027,63.814552 c -0.04022,-0.202848 0.01058,-0.314325 0.111832,-0.314325 0.141817,0 0.141817,0.121353 0.192617,0.334785 0.121356,0.466018 0.729898,1.520118 2.129014,1.520118 0.962729,0 1.905704,-0.536926 1.905704,-1.60161 0,-1.956152 -4.115858,-0.861131 -4.115858,-3.506965 0,-1.287285 1.08444,-1.905351 2.250016,-1.905351 1.227315,0 1.561749,0.364773 1.703565,0.364773 0.09137,0 0.111832,-0.11148 0.213077,-0.11148 0.06032,0 0.11148,0.03034 0.121357,0.141817 l 0.152048,1.378656 c 0.01024,0.08078 -0.0099,0.152048 -0.11148,0.152048 -0.111477,0 -0.182385,-0.213079 -0.212725,-0.304096 -0.304093,-0.871712 -1.04422,-1.317625 -1.936043,-1.317625 -0.801511,0 -1.652765,0.384882 -1.652765,1.317625 0,1.905355 4.115506,0.790575 4.115506,3.588105 0,0.851252 -0.597606,2.128308 -2.899127,2.128308 -0.750006,0 -1.672521,-0.37465 -1.713089,-0.55739 l -0.253649,-1.307393"
       style="fill:#d22027;fill-opacity:1;fill-rule:nonzero;stroke:none;stroke-width:0.0352777"
       id="path941" />
    <path
       d="m 76.468792,59.304287 c -0.0099,-0.740127 -0.820915,-0.537633 -0.820915,-0.760235 0,-0.09137 0.02045,-0.111832 0.100897,-0.111832 0.375708,0 0.740478,0.04057 1.115128,0.04057 0.314325,0 0.62865,-0.04057 0.942975,-0.04057 0.161925,0 0.192265,0.02045 0.192265,0.101248 0,0.243417 -0.729543,0.01058 -0.729543,0.770819 v 5.442302 c 0,0.689681 0.902052,0.456141 0.902052,0.76059 0,0.07091 -0.03034,0.101248 -0.202849,0.101248 -0.232833,0 -0.668866,-0.04057 -1.1049,-0.04057 -0.617712,0 -0.831143,0.04057 -0.97296,0.04057 -0.182385,0 -0.212725,-0.0508 -0.212725,-0.152048 0,-0.293865 0.790575,0.04057 0.790575,-0.962732 v -5.18936"
       style="fill:#d22027;fill-opacity:1;fill-rule:nonzero;stroke:none;stroke-width:0.0352777"
       id="path943" />
    <path
       d="m 79.953177,64.138754 c 0,0.162276 -0.03034,0.648758 0.06103,0.740126 0.334433,0.334434 1.1049,0.456142 1.561042,0.456142 1.439333,0 2.807758,-0.770467 2.807758,-3.111852 0,-2.250368 -1.500717,-3.527425 -3.426532,-3.537302 -0.962376,0 -1.0033,0.162277 -1.0033,0.638175 z M 79.152726,59.51666 c 0,-1.033992 -0.831144,-0.709438 -0.831144,-0.983192 0,-0.07091 0.08114,-0.101248 0.142169,-0.101248 0.313973,0 0.607483,0.04057 0.911931,0.04057 0.668867,0 1.327854,-0.04057 2.199569,-0.04057 1.793875,0 3.55741,1.358548 3.55741,3.233209 0,2.331508 -1.1049,3.942998 -3.912304,3.942998 -0.516821,0 -1.033992,-0.04057 -1.550813,-0.04057 -0.09102,0 -1.063977,0.04057 -1.135237,0.04057 -0.08114,0 -0.100896,-0.04057 -0.100896,-0.101248 0,-0.23354 0.719315,0.02011 0.719315,-0.942624 V 59.51666"
       style="fill:#d22027;fill-opacity:1;fill-rule:nonzero;stroke:none;stroke-width:0.0352777"
       id="path945" />
    <path
       d="m 87.037661,62.17237 c -0.07091,0.141817 0,0.182385 0.13194,0.182385 h 2.006951 c 0.222957,0 0.212374,-0.07091 0.162277,-0.202845 l -0.99342,-2.442633 c -0.0508,-0.121357 -0.1016,-0.121357 -0.16228,0 z m 2.73685,1.013884 c -0.101248,-0.233186 -0.162277,-0.385586 -0.446265,-0.385586 h -2.229908 c -0.192262,0 -0.374648,0 -0.475896,0.212725 l -0.648758,1.419225 c -0.03034,0.07126 -0.07056,0.223309 -0.07056,0.354894 0,0.709435 0.719315,0.405342 0.719315,0.668867 0,0.182739 -0.142168,0.152048 -0.273756,0.152048 -0.283634,0 -0.567619,-0.04057 -0.851604,-0.04057 -0.273405,0 -0.547158,0.04057 -0.811038,0.04057 -0.06068,0 -0.09102,-0.0508 -0.09102,-0.11148 0,-0.212725 0.476605,-0.04057 0.739775,-0.618067 l 2.422525,-5.169603 c 0.598311,-1.277057 0.62865,-1.439334 0.76059,-1.439334 0.111477,0 0.182034,0.294217 0.212371,0.375354 l 2.108554,5.220055 c 0.151694,0.37465 0.273402,0.800452 0.506587,1.155345 0.304097,0.466021 0.892175,0.243065 0.892175,0.496358 0,0.09137 -0.07126,0.09137 -0.142168,0.09137 -0.415219,0 -0.830792,-0.04057 -1.246717,-0.04057 -0.27305,0 -0.547158,0.04057 -0.820915,0.04057 -0.06068,0 -0.222953,0 -0.222953,-0.101248 0,-0.243417 0.608541,-0.142169 0.608541,-0.52705 0,-0.223309 -0.213431,-0.689682 -0.314325,-0.963084 l -0.324556,-0.830791"
       style="fill:#d22027;fill-opacity:1;fill-rule:nonzero;stroke:none;stroke-width:0.0352777"
       id="path947" />
    <path
       d="m 93.533359,64.138754 c 0,0.162276 -0.03034,0.648758 0.06068,0.740126 0.334785,0.334434 1.105252,0.456142 1.561393,0.456142 1.439334,0 2.807407,-0.770467 2.807407,-3.111852 0,-2.250368 -1.50001,-3.527425 -3.425825,-3.537302 -0.962732,0 -1.003652,0.162277 -1.003652,0.638175 z M 92.732904,59.51666 c 0,-1.033992 -0.831143,-0.709438 -0.831143,-0.983192 0,-0.07091 0.08114,-0.101248 0.142168,-0.101248 0.313622,0 0.607838,0.04057 0.911932,0.04057 0.668866,0 1.327502,-0.04057 2.199568,-0.04057 1.793875,0 3.557765,1.358548 3.557765,3.233209 0,2.331508 -1.1049,3.942998 -3.912658,3.942998 -0.517173,0 -1.03364,-0.04057 -1.55081,-0.04057 -0.09102,0 -1.064332,0.04057 -1.13524,0.04057 -0.08114,0 -0.101248,-0.04057 -0.101248,-0.101248 0,-0.23354 0.719666,0.02011 0.719666,-0.942624 V 59.51666"
       style="fill:#d22027;fill-opacity:1;fill-rule:nonzero;stroke:none;stroke-width:0.0352777"
       id="path949" />
    <path
       d="m 37.572926,70.134212 c 0,-2.1082 -1.226255,-1.520825 -1.226255,-1.895475 0,-0.06103 0.101247,-0.1016 0.152047,-0.1016 0.162278,0 0.314325,0.04057 0.47625,0.04057 0.152047,0 0.314325,-0.04057 0.466372,-0.04057 0.111478,0 0.202495,0.162277 0.263525,0.23354 l 4.83482,5.381977 c 0.06068,0.07091 0.101247,0.111476 0.121355,0.111476 0.02046,0 0.03069,-0.03069 0.03069,-0.111476 v -4.236861 c 0,-1.327856 -1.125361,-0.942623 -1.125361,-1.277056 0,-0.07091 0.0508,-0.1016 0.111831,-0.1016 0.304094,0 0.597958,0.04057 0.922161,0.04057 0.344664,0 0.780344,-0.04057 1.023761,-0.04057 0.06068,0 0.101247,0.03069 0.101247,0.09172 0,0.263525 -0.597958,0.08078 -0.597958,0.820912 v 5.868458 c 0,0.294217 -0.01023,0.436034 -0.09102,0.436034 -0.07091,0 -0.172508,-0.05115 -0.385233,-0.283985 l -4.35857,-4.905724 c -0.02011,-0.02011 -0.141817,-0.192617 -0.212725,-0.192617 -0.04057,0 -0.07091,0.03034 -0.07091,0.233185 v 4.145492 c 0,0.911931 0.891822,0.55739 0.891822,0.831498 0,0.05009 -0.01023,0.131585 -0.111478,0.131585 -0.243063,0 -0.52705,-0.04092 -1.023761,-0.04092 -0.354541,0 -0.881591,0.04092 -0.9525,0.04092 -0.121708,0 -0.131938,-0.06103 -0.131938,-0.111831 0,-0.354542 0.891822,0.09137 0.891822,-1.327502 v -3.74015"
       style="fill:#d22027;fill-opacity:1;fill-rule:nonzero;stroke:none;stroke-width:0.0352777"
       id="path951" />
    <path
       d="m 47.798895,71.877287 c -0.07091,0.142168 0,0.18274 0.131587,0.18274 h 2.006952 c 0.222956,0 0.213078,-0.07091 0.162278,-0.202848 L 49.10629,69.414545 c -0.05045,-0.121708 -0.101247,-0.121708 -0.162278,0 z m 2.73685,1.013883 c -0.1016,-0.23354 -0.162277,-0.385233 -0.446264,-0.385233 h -2.229555 c -0.192617,0 -0.375356,0 -0.476603,0.212725 l -0.648758,1.419225 c -0.03034,0.07091 -0.07091,0.222956 -0.07091,0.354542 0,0.709435 0.719666,0.405341 0.719666,0.669218 0,0.182388 -0.141816,0.152048 -0.273755,0.152048 -0.283634,0 -0.56762,-0.04092 -0.851253,-0.04092 -0.273756,0 -0.547511,0.04092 -0.811036,0.04092 -0.06068,0 -0.09102,-0.05115 -0.09102,-0.111831 0,-0.212725 0.47625,-0.04022 0.739775,-0.618419 l 2.422525,-5.1689 c 0.597958,-1.277408 0.628297,-1.439333 0.760236,-1.439333 0.111478,0 0.182386,0.293865 0.212725,0.375002 l 2.1082,5.220054 c 0.152047,0.375002 0.273756,0.800804 0.506942,1.155346 0.304094,0.466373 0.891822,0.243416 0.891822,0.496713 0,0.09137 -0.07091,0.09137 -0.141817,0.09137 -0.415572,0 -0.831144,-0.04092 -1.246716,-0.04092 -0.273756,0 -0.547159,0.04092 -0.820914,0.04092 -0.06103,0 -0.222956,0 -0.222956,-0.101248 0,-0.243417 0.607836,-0.142168 0.607836,-0.527402 0,-0.222956 -0.212725,-0.689327 -0.313972,-0.962731 L 50.535745,72.89117"
       style="fill:#d22027;fill-opacity:1;fill-rule:nonzero;stroke:none;stroke-width:0.0352777"
       id="path953" />
    <path
       d="m 58.004404,68.04612 c 1.905352,0 2.432755,0.780344 2.72662,0.780344 0.08114,0 0.141816,-0.101246 0.243062,-0.101246 0.111479,0 0.111479,0.162277 0.142171,0.820912 0.02011,0.53693 0.111477,0.872067 -0.06103,0.872067 -0.121709,0 -0.192265,-0.263525 -0.232834,-0.335137 -0.62865,-1.084088 -1.348316,-1.743075 -2.655711,-1.743075 -1.976614,0 -2.929114,1.317625 -2.929114,3.202869 0,1.763535 1.013531,3.527425 2.959453,3.527425 1.591381,0 2.584804,-1.013532 2.736497,-1.479902 0.02045,-0.07091 0.08114,-0.131588 0.142169,-0.131588 0.05045,0 0.101248,0.06068 0.09102,0.111479 l -0.233185,1.013177 c -0.0099,0.04092 -0.729544,0.801159 -3.010252,0.801159 -2.077861,0 -3.567642,-1.429457 -3.567642,-3.527425 0,-2.097969 1.510242,-3.811059 3.648781,-3.811059"
       style="fill:#d22027;fill-opacity:1;fill-rule:nonzero;stroke:none;stroke-width:0.0352777"
       id="path955" />
    <path
       d="m 63.629444,69.009204 c -0.0099,-0.740127 -0.820912,-0.537282 -0.820912,-0.76059 0,-0.09102 0.02045,-0.111477 0.1016,-0.111477 0.37465,0 0.739775,0.04057 1.114777,0.04057 0.314325,0 0.628298,-0.04057 0.942623,-0.04057 0.161925,0 0.192617,0.02045 0.192617,0.1016 0,0.243065 -0.73025,0.0099 -0.73025,0.770467 v 5.442656 c 0,0.689327 0.902403,0.456142 0.902403,0.760587 0,0.07091 -0.03034,0.101248 -0.202845,0.101248 -0.232833,0 -0.668867,-0.04092 -1.104548,-0.04092 -0.618419,0 -0.831144,0.04092 -0.97296,0.04092 -0.182388,0 -0.212725,-0.05115 -0.212725,-0.152048 0,-0.294217 0.79022,0.04022 0.79022,-0.963083 v -5.18936"
       style="fill:#d22027;fill-opacity:1;fill-rule:nonzero;stroke:none;stroke-width:0.0352777"
       id="path957" />
    <path
       d="m 67.712494,71.390805 c 0,1.875367 1.225905,3.689705 3.233208,3.689705 1.479905,0 2.666649,-1.18604 2.666649,-3.061055 0,-1.844675 -1.247424,-3.638901 -3.224036,-3.638901 -1.703213,0 -2.675821,1.408641 -2.675821,3.010251 z m -0.740127,0.294217 c 0,-2.108552 1.641827,-3.638902 3.71969,-3.638902 2.068687,0 3.660069,1.490134 3.660069,3.588102 0,2.280708 -1.571274,3.750382 -3.832225,3.750382 -2.199569,0 -3.547534,-1.561042 -3.547534,-3.699582"
       style="fill:#d22027;fill-opacity:1;fill-rule:nonzero;stroke:none;stroke-width:0.0352777"
       id="path959" />
    <path
       d="m 76.732669,70.134212 c 0,-2.1082 -1.226254,-1.520825 -1.226254,-1.895475 0,-0.06103 0.101246,-0.1016 0.152046,-0.1016 0.161925,0 0.314325,0.04057 0.47625,0.04057 0.1524,0 0.314325,-0.04057 0.466373,-0.04057 0.111477,0 0.202848,0.162277 0.263173,0.23354 l 4.83517,5.381977 c 0.06068,0.07091 0.1016,0.111476 0.121709,0.111476 0.02011,0 0.03034,-0.03069 0.03034,-0.111476 v -4.236861 c 0,-1.327856 -1.125009,-0.942623 -1.125009,-1.277056 0,-0.07091 0.05045,-0.1016 0.111477,-0.1016 0.303742,0 0.597958,0.04057 0.922163,0.04057 0.344662,0 0.780344,-0.04057 1.02376,-0.04057 0.06068,0 0.101248,0.03069 0.101248,0.09172 0,0.263525 -0.597606,0.08078 -0.597606,0.820912 v 5.868458 c 0,0.294217 -0.01024,0.436034 -0.09137,0.436034 -0.07091,0 -0.172508,-0.05115 -0.385233,-0.283985 l -4.358571,-4.905727 c -0.02011,-0.02011 -0.141817,-0.192617 -0.212725,-0.192617 -0.04057,0 -0.07091,0.03034 -0.07091,0.233185 v 4.145492 c 0,0.911931 0.891824,0.55739 0.891824,0.831498 0,0.05009 -0.01024,0.131585 -0.111477,0.131585 -0.243417,0 -0.52705,-0.04092 -1.023409,-0.04092 -0.354896,0 -0.882298,0.04092 -0.952854,0.04092 -0.12206,0 -0.131937,-0.06103 -0.131937,-0.111831 0,-0.354542 0.89182,0.09137 0.89182,-1.327502 v -3.74015"
       style="fill:#d22027;fill-opacity:1;fill-rule:nonzero;stroke:none;stroke-width:0.0352777"
       id="path961" />
    <path
       d="m 86.553299,71.877287 c -0.07091,0.142168 0,0.18274 0.131585,0.18274 h 2.006952 c 0.223308,0 0.212725,-0.07091 0.162277,-0.202848 l -0.993421,-2.442634 c -0.05045,-0.121708 -0.101248,-0.121708 -0.162279,0 z m 2.736495,1.013883 c -0.101248,-0.23354 -0.162277,-0.385233 -0.44591,-0.385233 h -2.229908 c -0.192617,0 -0.37465,0 -0.475899,0.212725 l -0.64911,1.419225 c -0.03034,0.07091 -0.07091,0.222956 -0.07091,0.354542 0,0.709435 0.720018,0.405341 0.720018,0.669218 0,0.182388 -0.142168,0.152048 -0.274108,0.152048 -0.283633,0 -0.567267,-0.04092 -0.851252,-0.04092 -0.273756,0 -0.54751,0.04092 -0.811035,0.04092 -0.06068,0 -0.09102,-0.05115 -0.09102,-0.111831 0,-0.212725 0.47625,-0.04022 0.739775,-0.618419 l 2.422523,-5.1689 c 0.597958,-1.277408 0.62865,-1.439333 0.760238,-1.439333 0.111125,0 0.182385,0.293865 0.212725,0.375002 l 2.108551,5.220054 c 0.151694,0.375002 0.273402,0.800804 0.50659,1.155346 0.304094,0.466373 0.892175,0.243416 0.892175,0.496713 0,0.09137 -0.07126,0.09137 -0.142171,0.09137 -0.415925,0 -0.831144,-0.04092 -1.246717,-0.04092 -0.273753,0 -0.54751,0.04092 -0.820912,0.04092 -0.06103,0 -0.222956,0 -0.222956,-0.101248 0,-0.243417 0.60819,-0.142168 0.60819,-0.527402 0,-0.222956 -0.21308,-0.689327 -0.31468,-0.962731 L 89.289794,72.89117"
       style="fill:#d22027;fill-opacity:1;fill-rule:nonzero;stroke:none;stroke-width:0.0352777"
       id="path963" />
    <path
       d="m 95.096517,74.066627 c 0,0.59831 -0.08079,0.841375 0.770467,0.841375 2.341033,0 2.685695,-1.043872 2.817635,-1.043872 0.07091,0 0.08079,0.100897 0.08079,0.121709 0,0.364773 -0.263525,0.719666 -0.506587,0.983191 -0.324204,0.364774 -0.547158,0.344665 -0.993071,0.344665 -0.770467,0 -1.540933,-0.06103 -2.311045,-0.04092 -0.405697,0.01058 -0.831499,0.04092 -1.236488,0.04092 -0.09137,0 -0.152046,-0.02045 -0.152046,-0.101248 0.02011,-0.12206 0.121354,-0.101952 0.44591,-0.264229 0.263525,-0.121356 0.283634,-0.404989 0.283634,-0.881591 v -5.138915 c 0,-0.526698 -0.851607,-0.45579 -0.851607,-0.658635 0,-0.11148 0.07126,-0.13194 0.202848,-0.13194 0.213077,0 0.527402,0.04057 1.024115,0.04057 0.577496,0 0.820912,-0.04057 0.97296,-0.04057 0.131586,0 0.192617,0.02045 0.192617,0.141817 0,0.233539 -0.740127,-0.01976 -0.740127,0.861835 v 4.925838"
       style="fill:#d22027;fill-opacity:1;fill-rule:nonzero;stroke:none;stroke-width:0.0352777"
       id="path965" />
    <path
       d="m 38.349743,78.002568 c 0.948267,0 1.210733,0.388054 1.357136,0.388054 0.04022,0 0.07056,-0.05044 0.121003,-0.05044 0.05539,0 0.05539,0.08078 0.07056,0.408516 0.01023,0.267759 0.05574,0.433917 -0.03034,0.433917 -0.06032,0 -0.0956,-0.131233 -0.116064,-0.166158 -0.312561,-0.540105 -0.670983,-0.867834 -1.321506,-0.867834 -0.983897,0 -1.45803,0.655812 -1.45803,1.594202 0,0.87771 0.504472,1.755423 1.4732,1.755423 0.791986,0 1.286228,-0.504473 1.362075,-0.7366 0.0099,-0.03528 0.04022,-0.06562 0.07056,-0.06562 0.02505,0 0.05045,0.03034 0.04551,0.05574 l -0.116064,0.504473 c -0.0053,0.02011 -0.363361,0.398285 -1.4986,0.398285 -1.033992,0 -1.775531,-0.7112 -1.775531,-1.75542 0,-1.044223 0.75177,-1.896534 1.8161,-1.896534"
       style="fill:#d22027;fill-opacity:1;fill-rule:nonzero;stroke:none;stroke-width:0.0352777"
       id="path967" />
    <path
       d="m 44.052748,79.666972 c 0,0.93345 0.610306,1.836563 1.60902,1.836563 0.7366,0 1.326797,-0.59055 1.326797,-1.523648 0,-0.917927 -0.620183,-1.81116 -1.604081,-1.81116 -0.847725,0 -1.331736,0.70132 -1.331736,1.498245 z m -0.3683,0.146405 c 0,-1.049515 0.817034,-1.810809 1.851378,-1.810809 1.029053,0 1.821039,0.741186 1.821039,1.785409 0,1.135237 -0.781756,1.866545 -1.906764,1.866545 -1.094669,0 -1.765653,-0.776817 -1.765653,-1.841145"
       style="fill:#d22027;fill-opacity:1;fill-rule:nonzero;stroke:none;stroke-width:0.0352777"
       id="path969" />
    <path
       d="m 51.16757,80.726364 c -0.02011,-0.100894 0.0049,-0.156279 0.05539,-0.156279 0.07091,0 0.07091,0.06068 0.09596,0.16651 0.06068,0.232127 0.363361,0.756709 1.059392,0.756709 0.479425,0 0.948619,-0.267407 0.948619,-0.797277 0,-0.973315 -2.048228,-0.428625 -2.048228,-1.745192 0,-0.640998 0.53975,-0.948267 1.119717,-0.948267 0.610306,0 0.777169,0.181327 0.847725,0.181327 0.04551,0 0.05539,-0.05574 0.105833,-0.05574 0.03034,0 0.05539,0.01516 0.06068,0.07091 l 0.07549,0.686154 c 0.0049,0.04022 -0.0049,0.07549 -0.05539,0.07549 -0.05539,0 -0.09066,-0.105833 -0.105833,-0.151342 -0.151342,-0.433916 -0.519642,-0.655815 -0.963789,-0.655815 -0.398639,0 -0.822325,0.191559 -0.822325,0.655815 0,0.948267 2.048228,0.393348 2.048228,1.78576 0,0.42404 -0.297392,1.059392 -1.442861,1.059392 -0.373239,0 -0.832203,-0.186267 -0.852311,-0.277283 l -0.126295,-0.650875"
       style="fill:#d22027;fill-opacity:1;fill-rule:nonzero;stroke:none;stroke-width:0.0352777"
       id="path971" />
    <path
       d="m 58.776987,78.557135 c 0,-0.03563 0.02011,-0.22719 -0.05045,-0.23213 h -0.822325 c -0.312561,0 -0.322792,0.07585 -0.413809,0.353132 -0.01517,0.05045 -0.02011,0.116065 -0.08573,0.116065 -0.02999,0 -0.05045,-0.03528 -0.05045,-0.06068 l 0.05574,-0.489302 c 0.0049,-0.06032 0,-0.196498 0.09066,-0.196498 0.3937,0 0.782108,0.02011 1.43263,0.02011 0.913342,0 1.377598,-0.02011 1.478139,-0.02011 0.116063,0 0.141463,0.03034 0.146403,0.146405 l 0.0254,0.403225 c 0.0049,0.0508 0.0099,0.111125 -0.05574,0.111125 -0.186618,0 0.08608,-0.383472 -0.428624,-0.383472 h -0.72143 c -0.226836,0 -0.201789,-0.02011 -0.201789,0.247299 v 2.572808 c 0,0.423685 0.408516,0.257175 0.408516,0.413808 0,0.01516 0.0049,0.06068 -0.04551,0.06068 -0.121003,0 -0.262114,-0.02045 -0.408517,-0.02045 -0.56515,0 -0.660752,0.02045 -0.691091,0.02045 -0.04551,0 -0.06032,-0.01516 -0.06032,-0.06597 0,-0.121002 0.398286,-0.07056 0.398286,-0.37324 v -2.623254"
       style="fill:#d22027;fill-opacity:1;fill-rule:nonzero;stroke:none;stroke-width:0.0352777"
       id="path973" />
    <path
       d="m 64.980584,79.90933 c -0.03563,0.07056 0,0.09067 0.06527,0.09067 h 0.999066 c 0.111125,0 0.105834,-0.03528 0.08079,-0.100893 l -0.494603,-1.21603 c -0.02506,-0.06032 -0.05045,-0.06032 -0.08079,0 z m 1.362075,0.504474 c -0.05045,-0.116065 -0.08078,-0.191559 -0.22225,-0.191559 h -1.109485 c -0.09596,0 -0.186622,0 -0.237422,0.105834 l -0.322791,0.70626 c -0.01516,0.03528 -0.03528,0.110773 -0.03528,0.17639 0,0.352776 0.358068,0.202141 0.358068,0.333023 0,0.09102 -0.07055,0.07585 -0.13617,0.07585 -0.141113,0 -0.282575,-0.02045 -0.423688,-0.02045 -0.136525,0 -0.272343,0.02045 -0.403577,0.02045 -0.03034,0 -0.04551,-0.02574 -0.04551,-0.05609 0,-0.105126 0.237067,-0.01976 0.368652,-0.307268 l 1.205796,-2.57316 c 0.297037,-0.635355 0.312208,-0.71614 0.378177,-0.71614 0.05503,0 0.09066,0.14605 0.105833,0.186618 l 1.049515,2.598209 c 0.07549,0.186621 0.135819,0.39864 0.252235,0.575029 0.151342,0.232127 0.443794,0.121002 0.443794,0.247296 0,0.04551 -0.03528,0.04551 -0.07055,0.04551 -0.20673,0 -0.413808,-0.02045 -0.620538,-0.02045 -0.13617,0 -0.272695,0.02045 -0.408517,0.02045 -0.03034,0 -0.111125,0 -0.111125,-0.0508 0,-0.121002 0.302684,-0.07055 0.302684,-0.262112 0,-0.111125 -0.106185,-0.343255 -0.156279,-0.479073 l -0.161573,-0.413808"
       style="fill:#d22027;fill-opacity:1;fill-rule:nonzero;stroke:none;stroke-width:0.0352777"
       id="path975" />
    <path
       d="m 76.815219,79.682143 c 0,0.09595 0.312563,0.07091 0.54963,0.07091 0.216958,0 0.70132,-0.09102 0.70132,-0.716847 0,-0.615243 -0.469193,-0.82197 -0.963435,-0.82197 -0.181682,0 -0.287515,-0.01024 -0.287515,0.186619 z m 1.836208,1.387475 c 0.363363,0.554567 0.610307,0.3683 0.610307,0.489302 0,0.06068 -0.281869,0.06068 -0.327377,0.06068 -0.368655,0 -0.565505,-0.257527 -0.757063,-0.545042 l -0.56021,-0.88265 c -0.181327,-0.282578 -0.105833,-0.267406 -0.670632,-0.267406 -0.16157,0 -0.131233,0.09066 -0.131233,0.140758 v 1.064683 c 0,0.433562 0.524582,0.277636 0.524582,0.448734 0,0.0508 -0.04551,0.04092 -0.08572,0.04092 -0.04551,0 -0.161574,-0.02045 -0.580319,-0.02045 -0.191913,0 -0.383471,0.02045 -0.574675,0.02045 -0.03034,0 -0.05116,-0.02574 -0.05116,-0.05609 0,-0.125587 0.368655,-0.05503 0.368655,-0.438853 v -2.567517 c 0,-0.484365 -0.433917,-0.277283 -0.433917,-0.448733 0,-0.03034 0.04057,-0.06068 0.101246,-0.06068 0.09067,0 0.06527,0.02011 0.322791,0.02011 0.292455,0 0.579967,-0.02011 0.842082,-0.02011 0.08078,0 1.195565,-0.100893 1.195565,0.872773 0,0.393348 -0.282575,0.731309 -0.635355,0.872773 l 0.842433,1.27635"
       style="fill:#d22027;fill-opacity:1;fill-rule:nonzero;stroke:none;stroke-width:0.0352777"
       id="path977" />
    <path
       d="m 83.411107,78.481287 c -0.0053,-0.3683 -0.408517,-0.267052 -0.408517,-0.378177 0,-0.04551 0.0099,-0.05539 0.05045,-0.05539 0.186973,0 0.367948,0.02011 0.554921,0.02011 0.156279,0 0.31256,-0.02011 0.469194,-0.02011 0.08043,0 0.0956,0.0099 0.0956,0.0501 0,0.121354 -0.363008,0.0053 -0.363008,0.383469 v 2.709333 c 0,0.342548 0.448733,0.226835 0.448733,0.378177 0,0.03563 -0.01516,0.0508 -0.100893,0.0508 -0.11571,0 -0.332669,-0.02045 -0.549627,-0.02045 -0.307623,0 -0.413456,0.02045 -0.484365,0.02045 -0.09067,0 -0.105833,-0.02574 -0.105833,-0.07585 0,-0.146405 0.393348,0.01976 0.393348,-0.479425 v -2.58304"
       style="fill:#d22027;fill-opacity:1;fill-rule:nonzero;stroke:none;stroke-width:0.0352777"
       id="path979" />
    <path
       d="m 89.919502,78.002568 c 0.948619,0 1.211086,0.388054 1.357136,0.388054 0.04057,0 0.07091,-0.05044 0.121356,-0.05044 0.05539,0 0.05539,0.08078 0.07056,0.408516 0.0099,0.267759 0.05538,0.433917 -0.03034,0.433917 -0.06068,0 -0.09596,-0.131233 -0.116065,-0.166158 -0.312912,-0.540105 -0.670983,-0.867834 -1.321504,-0.867834 -0.983898,0 -1.458031,0.655812 -1.458031,1.594202 0,0.87771 0.504118,1.755423 1.4732,1.755423 0.791633,0 1.286227,-0.504473 1.361723,-0.7366 0.01024,-0.03528 0.04022,-0.06562 0.07055,-0.06562 0.0254,0 0.0508,0.03034 0.04551,0.05574 l -0.116062,0.504473 c -0.0049,0.02011 -0.363008,0.398285 -1.498248,0.398285 -1.034344,0 -1.775532,-0.7112 -1.775532,-1.75542 0,-1.044223 0.751417,-1.896534 1.815748,-1.896534"
       style="fill:#d22027;fill-opacity:1;fill-rule:nonzero;stroke:none;stroke-width:0.0352777"
       id="path981" />
    <path
       d="m 96.394386,79.90933 c -0.03528,0.07056 0,0.09067 0.06526,0.09067 h 0.999066 c 0.111125,0 0.106185,-0.03528 0.08079,-0.100893 l -0.494241,-1.216025 c -0.0254,-0.06032 -0.05045,-0.06032 -0.08078,0 z m 1.362075,0.504474 c -0.05045,-0.116065 -0.08043,-0.191559 -0.221898,-0.191559 h -1.109837 c -0.09596,0 -0.186974,0 -0.237067,0.105834 l -0.322792,0.70626 c -0.01516,0.03528 -0.03563,0.110773 -0.03563,0.17639 0,0.352776 0.358423,0.202141 0.358423,0.333023 0,0.09102 -0.07056,0.07585 -0.136525,0.07585 -0.141113,0 -0.282575,-0.02045 -0.423688,-0.02045 -0.13617,0 -0.272695,0.02045 -0.403577,0.02045 -0.03034,0 -0.04551,-0.02574 -0.04551,-0.05609 0,-0.105126 0.237066,-0.01976 0.3683,-0.307268 l 1.205793,-2.57316 c 0.297392,-0.635355 0.312563,-0.71614 0.378532,-0.71614 0.05574,0 0.09067,0.14605 0.105833,0.186618 l 1.04916,2.598209 c 0.07585,0.186621 0.136525,0.39864 0.25259,0.575029 0.151342,0.232127 0.443794,0.121002 0.443794,0.247296 0,0.04551 -0.03528,0.04551 -0.0702,0.04551 -0.207082,0 -0.41416,-0.02045 -0.62089,-0.02045 -0.136525,0 -0.272344,0.02045 -0.408517,0.02045 -0.03034,0 -0.111125,0 -0.111125,-0.0508 0,-0.121002 0.302684,-0.07055 0.302684,-0.262112 0,-0.111125 -0.105834,-0.343255 -0.156634,-0.479073 l -0.161218,-0.413808"
       style="fill:#d22027;fill-opacity:1;fill-rule:nonzero;stroke:none;stroke-width:0.0352777"
       id="path983" />
    <path
       d="M 36.462029,66.933812 H 98.486004"
       style="fill:none;stroke:#b4b3b3;stroke-width:0.372891;stroke-linecap:butt;stroke-linejoin:miter;stroke-miterlimit:4;stroke-dasharray:none;stroke-opacity:1"
       id="path985" />
    <path
       d="M 36.462029,57.008409 H 98.486004 V 56.037918 H 36.462029 v 0.970491"
       style="fill:#b4b3b3;fill-opacity:1;fill-rule:nonzero;stroke:none;stroke-width:0.0352777"
       id="path987" />
    <path
       d="M 36.462029,83.899602 H 98.486004 V 82.92911 H 36.462029 v 0.970492"
       style="fill:#b4b3b3;fill-opacity:1;fill-rule:nonzero;stroke:none;stroke-width:0.0352777"
       id="path989" />
    <path
       d="M 36.462029,76.766787 H 98.486004 V 76.393902 H 36.462029 v 0.372885"
       style="fill:#b4b3b3;fill-opacity:1;fill-rule:nonzero;stroke:none;stroke-width:0.0352777"
       id="path991" />
    <path
       d="m 39.017199,45.149785 c 0,4.951941 3.218744,7.21113 7.397044,7.21113 5.818716,0 7.149747,-3.837869 7.149747,-7.489825 V 34.843029 c 0,-3.156655 -2.878667,-1.857022 -2.878667,-3.033183 0,-0.154517 0.216606,-0.309386 0.309386,-0.309386 1.207206,0 2.414411,0.123825 3.621617,0.123825 0.587728,0 1.144764,-0.123825 1.7018,-0.123825 0.154869,0 0.402519,0.154869 0.402519,0.34043 0,0.866775 -1.825978,0.185562 -1.825978,3.033184 v 9.594497 c 0,1.516591 0.371123,9.161286 -8.634941,9.161286 -8.140347,0 -9.68763,-4.549775 -9.68763,-9.316156 V 33.883827 c 0,-1.826331 -2.506839,-1.083381 -2.506839,-2.073981 0,-0.216253 0.525992,-0.309386 0.680861,-0.309386 0.804686,0 1.578328,0.123825 2.414058,0.123825 0.990248,0 1.980848,-0.123825 2.940403,-0.123825 0.154517,0 0.990247,-0.06174 0.990247,0.309386 0,0.866775 -2.073627,0 -2.073627,2.228497 v 11.111442"
       style="fill:#d22027;fill-opacity:1;fill-rule:nonzero;stroke:none;stroke-width:0.0352777"
       id="path993" />
    <path
       d="m 58.945615,37.597871 c 0,-6.437842 -3.745089,-4.642556 -3.745089,-5.788025 0,-0.185561 0.309386,-0.309386 0.464255,-0.309386 0.4953,0 0.959556,0.123825 1.454856,0.123825 0.464255,0 0.959203,-0.123825 1.423458,-0.123825 0.340431,0 0.619125,0.4953 0.804686,0.711905 l 14.764455,16.434506 c 0.185563,0.216605 0.30974,0.34043 0.371475,0.34043 0.06174,0 0.09243,-0.09278 0.09243,-0.34043 V 35.709452 c 0,-4.054123 -3.436056,-2.877962 -3.436056,-3.899606 0,-0.216253 0.154868,-0.309386 0.340783,-0.309386 0.92851,0 1.826332,0.123825 2.816932,0.123825 1.051983,0 2.383366,-0.123825 3.125962,-0.123825 0.185915,0 0.309388,0.09313 0.309388,0.278342 0,0.805038 -1.825625,0.24765 -1.825625,2.507191 v 17.920405 c 0,0.897114 -0.03105,1.330678 -0.278697,1.330678 -0.216958,0 -0.526343,-0.154517 -1.17616,-0.866775 L 61.143067,37.690651 c -0.06209,-0.06209 -0.433565,-0.58808 -0.650169,-0.58808 -0.123472,0 -0.216606,0.09278 -0.216606,0.711905 v 12.658372 c 0,2.785534 2.723798,1.702506 2.723798,2.538236 0,0.154517 -0.03105,0.40252 -0.340431,0.40252 -0.74295,0 -1.609725,-0.124178 -3.126317,-0.124178 -1.083027,0 -2.6924,0.124178 -2.909005,0.124178 -0.371475,0 -0.40252,-0.186267 -0.40252,-0.340784 0,-1.08338 2.723798,0.278695 2.723798,-4.054474 V 37.597871"
       style="fill:#d22027;fill-opacity:1;fill-rule:nonzero;stroke:none;stroke-width:0.0352777"
       id="path995" />
    <path
       d="m 82.898519,42.920935 c -0.216604,0.433563 0,0.557036 0.402521,0.557036 h 6.127748 c 0.680863,0 0.649816,-0.216606 0.4953,-0.618772 l -3.033181,-7.458781 c -0.154517,-0.371828 -0.309388,-0.371828 -0.4953,0 z m 8.356248,3.095272 c -0.309388,-0.711906 -0.494948,-1.176161 -1.361723,-1.176161 h -6.808962 c -0.588081,0 -1.145117,0 -1.454856,0.649816 l -1.980494,4.33317 c -0.09313,0.216605 -0.216958,0.680861 -0.216958,1.083027 0,2.166761 2.197452,1.23825 2.197452,2.042936 0,0.557037 -0.432859,0.464609 -0.835377,0.464609 -0.866775,0 -1.73355,-0.124178 -2.599973,-0.124178 -0.835377,0 -1.671109,0.124178 -2.476149,0.124178 -0.18556,0 -0.278341,-0.155222 -0.278341,-0.340784 0,-0.649816 1.454504,-0.123825 2.259541,-1.888066 l 7.397047,-15.784336 c 1.825977,-3.899958 1.918755,-4.395258 2.321277,-4.395258 0.340076,0 0.557387,0.897819 0.649462,1.145469 l 6.437841,15.939205 c 0.464609,1.145117 0.835732,2.44475 1.547638,3.528484 0.92851,1.423458 2.723796,0.742597 2.723796,1.516239 0,0.279047 -0.216604,0.279047 -0.433562,0.279047 -1.26859,0 -2.537532,-0.124178 -3.806825,-0.124178 -0.835732,0 -1.671109,0.124178 -2.50684,0.124178 -0.185915,0 -0.68086,0 -0.68086,-0.310092 0,-0.742597 1.85702,-0.433211 1.85702,-1.609019 0,-0.681214 -0.649817,-2.104672 -0.959554,-2.940403 l -0.9906,-2.537883"
       style="fill:#d22027;fill-opacity:1;fill-rule:nonzero;stroke:none;stroke-width:0.0352777"
       id="path997" />
  </g>
</svg>
